<?xml version="1.0" standalone="no"?>
<!DOCTYPE svg PUBLIC "-//W3C//DTD SVG 20010904//EN"
 "http://www.w3.org/TR/2001/REC-SVG-20010904/DTD/svg10.dtd">
<svg version="1.0" xmlns="http://www.w3.org/2000/svg"
 width="200.000000pt" height="80.000000pt" viewBox="0 0 622.000000 202.000000"
 preserveAspectRatio="xMidYMid meet">
<metadata>
Created by potrace 1.16, written by Peter Selinger 2001-2019
</metadata>
<g transform="translate(0.000000,202.000000) scale(0.100000,-0.100000)"
fill="#FFFFFF" stroke="none">
<path d="M4099 1893 c-45 -55 -87 -133 -93 -172 -4 -27 -23 -68 -46 -103 -23
-35 -43 -81 -51 -116 -23 -110 -41 -162 -66 -192 -32 -38 -49 -94 -57 -190
-10 -107 -16 -134 -28 -122 -6 6 -12 61 -15 124 -2 62 -8 122 -13 133 -11 24
-20 80 -27 162 -2 36 -11 67 -19 74 -20 16 -17 68 8 153 22 77 20 110 -9 104
-19 -4 -72 -75 -73 -98 0 -8 -14 -43 -32 -77 l-32 -62 -29 21 c-41 30 -51 15
-87 -132 -17 -69 -37 -143 -46 -165 -10 -29 -14 -75 -12 -170 l3 -130 -34 -47
c-38 -53 -50 -118 -31 -170 7 -19 14 -103 16 -193 3 -88 9 -164 14 -169 15
-15 39 2 45 31 4 15 15 56 26 91 17 53 19 70 10 113 -12 54 1 103 38 144 13
14 20 42 24 95 3 41 11 109 18 150 7 41 13 125 14 185 1 73 7 123 18 150 l16
40 0 -61 c1 -48 5 -65 21 -79 11 -10 20 -24 20 -31 0 -7 9 -19 19 -27 14 -9
23 -33 30 -74 5 -34 16 -74 25 -90 8 -16 18 -67 23 -114 7 -78 10 -85 36 -97
21 -10 27 -20 27 -45 0 -48 21 -82 50 -82 23 0 26 5 33 63 4 34 16 85 27 113
11 27 20 71 20 97 0 38 7 57 33 92 30 41 32 51 35 135 2 49 8 94 13 99 5 6 9
2 9 -11 0 -11 7 -26 16 -33 32 -28 34 -46 13 -116 -15 -48 -19 -81 -15 -118 3
-28 9 -91 14 -141 8 -83 28 -145 51 -160 6 -3 7 -35 4 -75 -5 -59 -3 -71 11
-76 10 -4 16 -18 16 -41 0 -25 8 -41 29 -61 22 -20 31 -38 33 -67 3 -38 4 -40
38 -40 l35 0 -4 50 c-2 28 -12 67 -22 87 -15 29 -18 49 -13 91 5 43 2 59 -14
86 -14 24 -19 44 -15 68 4 22 -1 48 -12 74 -18 38 -18 43 -2 87 10 27 16 72
15 107 0 33 2 70 6 82 5 15 2 31 -8 45 -10 14 -16 44 -16 79 0 31 -7 76 -15
99 -8 23 -15 70 -15 104 0 33 -7 90 -16 126 -21 89 -11 173 33 279 22 54 32
93 28 108 -6 27 -26 30 -46 6z m-9 -110 c-42 -99 -55 -198 -35 -271 8 -32 19
-100 25 -152 5 -52 14 -121 19 -154 5 -32 7 -64 4 -72 -3 -8 1 -24 9 -37 21
-30 16 -187 -7 -243 -15 -38 -15 -45 -1 -79 9 -21 16 -58 16 -83 0 -28 8 -57
21 -78 17 -28 19 -39 9 -73 -9 -35 -7 -46 15 -95 26 -58 31 -86 15 -86 -5 0
-10 9 -10 20 0 11 -13 32 -30 47 -21 18 -30 36 -30 57 0 17 -9 40 -22 53 -20
22 -21 27 -10 70 12 43 11 48 -12 83 -29 45 -44 98 -44 162 0 25 -6 70 -12
100 -11 47 -10 61 9 122 27 88 26 107 -4 136 -21 19 -25 33 -25 77 0 46 -3 54
-17 51 -25 -5 -45 -80 -47 -175 -2 -76 -5 -86 -35 -128 -26 -37 -34 -58 -38
-108 -2 -34 -13 -83 -24 -109 -10 -26 -19 -69 -19 -97 0 -54 -16 -69 -25 -23
-16 75 -26 98 -47 107 -17 8 -23 19 -24 45 -1 55 -15 132 -30 161 -7 14 -16
49 -20 78 -4 33 -16 63 -30 81 -13 15 -24 32 -24 37 0 5 -9 16 -19 25 -17 14
-19 25 -14 70 4 42 2 57 -11 67 -25 21 -43 -1 -67 -81 -18 -61 -19 -77 -9
-119 9 -36 9 -62 1 -96 -16 -72 -34 -223 -32 -267 2 -29 -4 -45 -23 -65 -38
-40 -48 -77 -40 -148 4 -45 2 -76 -10 -110 -8 -26 -19 -61 -23 -78 -10 -41
-23 157 -14 205 4 19 4 49 0 65 -4 17 -12 49 -18 72 -12 48 -5 76 36 136 33
48 43 112 31 204 -9 68 -8 80 21 175 17 57 36 128 42 158 8 41 17 58 33 66 18
8 25 8 33 -4 14 -23 40 -8 48 27 3 16 15 41 25 54 10 13 22 37 26 53 7 33 53
118 60 111 3 -2 -7 -40 -21 -83 -29 -93 -31 -131 -8 -156 10 -11 17 -39 19
-76 5 -93 15 -157 28 -164 7 -4 12 -44 14 -111 1 -57 6 -116 12 -131 5 -15 10
-41 10 -57 0 -40 27 -38 45 4 7 18 18 80 24 137 12 126 24 170 56 208 31 37
41 63 65 174 15 68 28 101 55 138 25 34 39 66 45 106 5 31 18 67 28 78 11 12
28 36 38 54 31 54 27 12 -6 -65z"/>
<path d="M469 1792 c-8 -3 -30 -17 -49 -32 -59 -46 -97 -61 -134 -55 -35 7
-81 -10 -106 -40 -7 -9 -21 -13 -31 -10 -11 4 -21 -1 -28 -14 -17 -31 -13 -57
14 -89 22 -27 24 -34 18 -100 -6 -71 -6 -72 31 -119 33 -42 36 -52 30 -83 -7
-39 -7 -42 2 -85 3 -16 5 -46 5 -66 -1 -22 6 -46 19 -62 11 -14 20 -38 20 -54
0 -15 7 -48 16 -73 12 -32 15 -64 11 -113 -5 -57 -3 -73 15 -103 18 -31 20
-41 10 -68 -18 -49 -15 -69 23 -149 24 -50 35 -88 35 -119 0 -32 6 -50 20 -63
13 -12 20 -31 20 -55 0 -43 28 -78 48 -58 7 7 12 30 12 51 0 24 8 49 20 64 22
28 26 58 9 69 -8 4 -9 25 -5 62 6 47 3 60 -20 99 -23 41 -25 49 -15 87 12 48
9 159 -7 197 -17 42 4 54 40 24 17 -14 42 -25 58 -25 20 0 35 -8 47 -25 49
-70 50 -71 73 -57 19 11 25 11 39 -2 10 -9 25 -16 33 -16 9 0 25 -21 37 -51
22 -49 23 -51 56 -45 31 6 35 4 57 -36 13 -24 35 -49 50 -56 15 -7 37 -29 48
-50 12 -20 39 -49 59 -63 30 -21 39 -35 45 -68 3 -22 18 -53 31 -68 14 -16 35
-43 46 -61 29 -49 44 -36 43 36 -1 50 -6 68 -32 108 -18 26 -32 59 -32 74 0
18 -14 40 -42 68 -87 84 -118 122 -118 143 0 12 -15 36 -33 53 -18 17 -39 46
-46 64 -16 39 -55 72 -86 72 -13 0 -30 11 -40 26 -9 15 -22 23 -31 20 -9 -3
-21 8 -34 34 -11 22 -27 40 -35 40 -8 0 -15 3 -15 6 0 14 66 70 94 79 20 7 37
22 48 45 9 19 26 54 37 78 12 23 21 52 21 64 0 11 8 35 19 52 13 21 20 58 24
119 4 75 2 90 -14 111 -15 19 -18 34 -13 63 5 30 1 44 -16 66 -20 25 -27 28
-61 22 -36 -6 -38 -5 -41 22 -3 25 -7 28 -43 31 -22 2 -47 9 -55 16 -49 41
-163 80 -201 68z m150 -67 c52 -27 95 -43 105 -39 10 4 18 0 22 -12 13 -43 21
-49 65 -49 l44 0 3 -60 c2 -33 9 -67 17 -75 20 -22 13 -185 -9 -209 -9 -10
-18 -32 -21 -49 -2 -17 -11 -42 -19 -54 -9 -12 -16 -30 -16 -40 0 -36 -23 -68
-58 -77 -19 -6 -53 -30 -78 -57 -42 -44 -44 -48 -28 -65 9 -10 21 -17 27 -16
6 1 22 -18 35 -41 18 -32 29 -42 42 -39 12 3 22 -4 29 -20 9 -19 17 -24 32
-20 32 9 48 -2 71 -47 11 -22 33 -53 48 -67 16 -15 34 -45 40 -68 7 -28 19
-45 39 -55 15 -8 34 -29 41 -46 7 -16 24 -36 38 -43 17 -8 30 -28 42 -63 9
-28 26 -64 38 -79 15 -19 22 -41 21 -69 0 -31 -2 -36 -8 -21 -5 11 -18 28 -29
39 -12 10 -28 42 -37 71 -12 42 -23 58 -50 75 -20 12 -45 40 -56 62 -13 25
-31 43 -50 50 -21 7 -37 25 -55 60 -24 47 -27 50 -57 44 -30 -5 -33 -2 -52 36
-11 23 -27 45 -35 49 -8 4 -27 12 -41 19 -14 6 -35 10 -47 8 -15 -2 -29 9 -52
40 -26 37 -35 43 -56 38 -18 -5 -35 2 -65 26 l-41 33 -19 -24 c-22 -28 -24
-47 -5 -82 9 -17 10 -32 4 -43 -6 -10 -5 -28 3 -51 10 -26 10 -40 1 -60 -18
-39 -15 -72 13 -119 21 -36 23 -46 14 -77 -9 -27 -8 -43 4 -72 15 -35 15 -38
-8 -65 -13 -15 -25 -44 -28 -63 -4 -32 -4 -31 -5 9 -1 26 -9 49 -20 60 -13 13
-18 29 -15 49 3 21 -6 53 -27 99 -46 99 -51 121 -36 158 14 34 13 44 -14 97
-15 29 -16 43 -8 75 8 31 7 52 -7 99 -9 33 -16 75 -16 93 1 18 -8 45 -19 60
-22 30 -34 107 -31 207 1 55 -2 64 -34 104 -37 47 -42 71 -24 132 11 36 10 40
-20 74 -17 20 -31 39 -31 43 0 16 18 34 28 29 5 -4 18 3 28 14 29 32 66 47
101 42 47 -7 72 1 132 47 34 25 65 40 83 40 16 0 69 -20 117 -45z"/>
<path d="M420 1544 c-23 -20 -38 -25 -59 -21 -47 10 -82 -48 -49 -81 6 -6 11
-31 10 -55 -2 -31 3 -50 18 -67 13 -15 20 -35 18 -56 -1 -20 5 -41 15 -52 9
-10 17 -32 17 -49 0 -17 7 -36 15 -43 11 -9 12 -17 5 -30 -25 -47 -2 -82 39
-60 16 8 26 7 44 -5 23 -14 26 -13 63 16 21 17 51 33 67 36 35 7 67 47 67 83
0 15 13 44 30 65 31 38 39 82 19 102 -8 8 -8 17 1 33 10 19 8 26 -19 54 -19
19 -29 39 -26 47 3 9 -4 27 -15 42 -16 21 -27 25 -48 21 -23 -5 -30 -1 -40 20
-11 24 -16 26 -76 26 -55 0 -69 -4 -96 -26z m160 -26 c17 -23 28 -28 53 -26
29 3 32 0 35 -27 2 -16 13 -40 24 -52 16 -17 22 -38 24 -85 3 -54 0 -67 -22
-95 -14 -18 -28 -52 -32 -74 -7 -43 -18 -54 -64 -63 -15 -4 -39 -17 -53 -30
-24 -22 -28 -23 -52 -11 -18 9 -32 11 -44 4 -27 -14 -28 -12 -16 20 9 25 8 33
-6 49 -10 10 -17 35 -17 56 0 23 -5 39 -15 42 -10 4 -15 20 -15 47 0 22 -7 48
-15 58 -9 9 -17 37 -19 62 -1 25 -8 52 -14 60 -21 25 -4 47 39 47 26 0 46 8
66 25 22 19 38 24 75 23 39 -1 50 -6 68 -30z"/>
<path d="M1031 1524 c-16 -12 -21 -25 -20 -52 1 -20 -4 -52 -12 -69 -12 -31
-12 -34 16 -63 30 -31 65 -39 83 -17 13 15 32 116 25 134 -3 7 -11 13 -19 13
-8 0 -14 10 -14 25 0 34 -30 49 -59 29z"/>
<path d="M5487 1513 c-4 -3 -7 -37 -7 -74 0 -37 -5 -71 -10 -74 -14 -9 -2
-217 15 -276 8 -25 17 -65 21 -90 3 -24 13 -50 22 -56 14 -12 14 -21 -7 -91
-12 -44 -21 -87 -19 -97 3 -19 -4 -25 -75 -54 -35 -15 -48 -25 -45 -38 1 -11
-17 -36 -46 -63 -45 -43 -47 -47 -35 -73 12 -26 10 -30 -74 -111 -48 -47 -87
-88 -87 -93 0 -5 -19 -20 -42 -33 -62 -34 -127 -90 -145 -124 -13 -25 -13 -30
1 -44 13 -14 20 -11 69 31 59 50 78 60 146 78 34 8 62 28 114 77 38 37 78 84
88 104 11 21 33 53 49 72 17 19 35 47 41 64 7 19 33 45 80 77 38 26 76 60 84
75 19 36 58 67 95 75 19 4 49 28 80 62 27 31 65 66 84 77 84 51 145 97 190
144 41 42 47 52 33 58 -22 8 -93 -20 -137 -55 -47 -37 -133 -84 -195 -107 -27
-9 -56 -22 -62 -27 -9 -7 -13 -4 -13 9 0 11 -11 42 -25 69 -19 39 -24 66 -25
122 0 59 -4 76 -23 100 -23 28 -36 62 -57 143 -14 54 -58 150 -69 150 -4 0
-11 -3 -14 -7z m46 -108 c9 -27 24 -77 34 -110 10 -33 26 -68 36 -77 13 -14
17 -35 17 -89 0 -60 5 -81 30 -131 28 -56 29 -60 16 -93 -9 -20 -11 -37 -6
-40 12 -7 46 11 57 29 4 7 40 26 78 41 65 26 154 76 200 115 11 9 34 22 50 29
l30 13 -25 -27 c-28 -30 -108 -88 -188 -136 -29 -17 -57 -41 -63 -53 -20 -38
-51 -65 -88 -77 -22 -7 -61 -36 -101 -78 -36 -36 -87 -81 -113 -99 -33 -22
-54 -46 -66 -75 -10 -23 -26 -49 -35 -56 -10 -8 -29 -34 -43 -58 -14 -24 -54
-71 -90 -106 -53 -51 -75 -65 -124 -78 -36 -10 -74 -29 -92 -46 -58 -53 -77
-66 -77 -55 0 18 71 81 129 114 29 17 62 46 73 64 11 18 28 36 39 39 10 4 19
12 19 18 0 7 23 32 51 56 48 41 51 46 45 81 -5 31 -2 40 22 62 15 14 37 31 50
37 15 8 22 20 20 34 -2 17 6 25 47 40 27 10 51 20 53 22 2 2 6 22 8 44 2 23
10 62 18 89 28 91 29 103 6 109 -15 4 -20 14 -20 38 0 18 -7 52 -15 75 -8 23
-15 69 -15 101 0 32 -5 80 -11 108 -9 42 -8 54 7 75 12 20 15 40 12 78 -6 56
1 49 25 -27z"/>
<path d="M1742 1495 c-45 -15 -53 -31 -46 -90 6 -51 -28 -226 -62 -318 -30
-82 -3 -128 43 -71 l23 29 -6 -50 c-4 -27 -13 -65 -20 -83 -10 -24 -11 -39 -3
-53 10 -20 -8 -144 -30 -202 -16 -41 -13 -72 7 -91 18 -15 20 -15 35 1 19 21
51 116 67 195 8 42 16 59 31 63 10 4 19 12 19 18 1 15 35 -28 59 -73 10 -19
21 -51 25 -71 3 -20 17 -46 31 -59 14 -13 25 -29 25 -35 0 -7 13 -39 29 -71
16 -32 35 -81 43 -108 16 -58 30 -66 63 -35 30 29 31 57 5 141 -11 34 -23 86
-26 113 -3 28 -14 64 -24 81 -10 17 -21 45 -25 62 -7 33 -30 58 -59 63 -23 5
-120 144 -113 163 3 8 31 25 62 40 49 22 58 31 77 75 16 39 31 56 64 76 24 14
44 30 44 36 0 5 21 32 47 60 35 38 44 52 35 61 -17 17 -84 -18 -165 -86 -36
-31 -70 -56 -77 -56 -6 0 -34 -16 -62 -35 -61 -42 -78 -36 -59 22 10 30 10 53
2 100 -8 41 -8 75 -2 103 9 41 2 83 -16 92 -4 2 -23 -1 -41 -7z m34 -67 c-4
-29 -7 -62 -7 -73 1 -11 1 -67 2 -125 1 -58 3 -108 6 -113 5 -9 53 16 104 56
20 15 43 27 51 27 7 0 42 25 76 55 35 31 78 63 95 71 29 16 29 14 -14 -34 -24
-28 -63 -64 -86 -81 -27 -19 -43 -40 -48 -60 -7 -31 -56 -81 -79 -81 -23 0
-66 -41 -66 -61 0 -23 76 -145 106 -170 10 -10 28 -19 39 -21 12 -2 22 -14 26
-33 3 -17 16 -48 27 -70 12 -22 22 -54 22 -72 0 -18 12 -68 26 -113 14 -45 23
-87 20 -93 -2 -7 -5 -4 -5 6 -1 22 -28 22 -34 -1 -3 -12 -6 -8 -11 13 -4 17
-16 48 -26 70 -11 22 -27 58 -35 80 -9 21 -23 47 -32 57 -9 10 -23 39 -32 66
-19 56 -71 141 -87 142 -21 0 -73 -31 -78 -48 -3 -9 -10 -46 -16 -80 -6 -35
-17 -78 -25 -95 -7 -18 -16 -41 -20 -52 -11 -35 -23 4 -13 44 22 88 38 179 37
216 0 22 5 75 12 118 10 62 10 80 0 90 -10 9 -18 6 -37 -17 -14 -15 -27 -26
-30 -23 -3 3 1 27 10 54 44 139 58 207 63 295 4 72 9 95 18 92 7 -3 16 -1 20
5 3 6 11 11 17 11 7 0 8 -18 4 -52z"/>
<path d="M5151 1368 c-17 -35 -35 -83 -41 -108 -31 -125 -39 -168 -40 -202 0
-33 -3 -38 -23 -38 -13 0 -27 -4 -32 -9 -6 -5 -21 -11 -35 -13 -32 -4 -36 -51
-5 -56 11 -2 37 -10 58 -19 36 -15 37 -18 31 -52 -4 -20 -11 -44 -16 -54 -5
-10 -6 -27 -3 -38 13 -40 15 -175 3 -236 -13 -70 -3 -136 22 -141 19 -3 47 93
56 193 4 39 13 82 20 96 7 15 13 46 13 70 0 39 6 138 10 148 0 2 8 -2 17 -10
14 -12 50 -20 157 -36 26 -3 37 -1 37 8 0 7 8 21 17 32 17 18 17 20 -6 38 -13
10 -31 19 -41 19 -10 0 -23 7 -30 15 -7 8 -25 15 -41 15 -15 0 -31 5 -34 10
-3 6 -24 10 -46 10 -21 0 -39 2 -39 5 0 2 7 22 15 42 13 34 24 78 42 166 3 16
-1 40 -8 54 -12 22 -11 29 9 63 12 22 22 50 22 64 0 22 -5 26 -30 26 -26 0
-33 -7 -59 -62z m69 35 c0 -4 -12 -31 -27 -60 -27 -51 -27 -52 -9 -72 21 -23
18 -38 -34 -203 -22 -70 -11 -95 37 -85 24 5 32 2 36 -12 3 -14 12 -17 36 -13
17 2 46 -3 65 -12 19 -9 39 -16 45 -16 16 0 14 -7 -9 -30 -19 -19 -22 -19 -50
-5 -16 8 -39 14 -52 13 -13 -1 -38 4 -56 11 -17 7 -38 11 -46 8 -14 -6 -25
-80 -25 -169 0 -21 -5 -47 -11 -59 -7 -11 -16 -62 -20 -113 -15 -155 -28 -158
-25 -4 2 75 6 141 9 147 4 6 2 20 -5 32 -9 17 -7 37 6 90 16 69 14 94 -9 86
-7 -3 -23 1 -37 9 -13 7 -34 13 -47 14 -38 0 -15 18 33 26 25 3 48 11 52 17 6
11 11 32 33 152 15 81 35 147 64 203 23 45 46 68 46 45z"/>
<path d="M4655 1320 c-3 -5 -8 -31 -10 -57 -2 -27 -9 -97 -15 -156 -13 -107
-13 -108 10 -132 19 -20 21 -29 13 -52 -6 -15 -10 -83 -9 -151 1 -110 3 -125
20 -134 25 -14 46 12 46 56 1 17 9 55 19 84 l18 53 29 -35 c65 -78 75 -98 84
-149 20 -127 40 -165 80 -152 24 8 26 38 5 88 -8 20 -15 65 -15 99 0 45 -6 72
-20 96 -11 18 -20 45 -20 60 0 28 -44 102 -60 102 -21 0 -8 18 31 43 22 15 47
27 54 27 22 0 65 59 65 90 0 16 -11 45 -25 65 -17 26 -23 45 -19 64 7 34 -8
47 -61 54 -22 2 -50 8 -62 12 -21 7 -45 -12 -87 -71 -13 -17 -15 -14 -21 31
-10 64 -32 94 -50 65z m30 -103 c8 -71 20 -71 67 -2 27 40 38 49 58 47 14 -1
41 -3 60 -5 32 -2 35 -5 35 -34 1 -18 10 -45 21 -60 44 -60 37 -103 -20 -127
-53 -22 -116 -65 -116 -80 0 -7 16 -29 35 -49 24 -24 35 -45 35 -65 0 -16 12
-51 26 -76 22 -39 25 -56 21 -94 -3 -32 1 -62 14 -96 18 -49 18 -69 -1 -50
-12 12 -40 116 -40 149 0 23 -48 101 -93 152 -11 12 -21 41 -23 65 -6 66 -11
74 -33 54 -15 -13 -20 -36 -24 -99 -6 -91 -20 -173 -31 -185 -4 -4 -7 36 -7
88 1 52 1 109 0 125 0 17 3 45 7 64 6 28 3 37 -16 51 -23 17 -23 21 -12 71 6
30 14 97 19 149 7 100 8 100 18 7z"/>
<path d="M1040 1241 c-20 -6 -25 -13 -26 -41 0 -19 -4 -45 -8 -58 -5 -16 -3
-29 8 -41 15 -16 15 -21 1 -54 -19 -47 -19 -71 1 -88 12 -10 15 -25 11 -59 -3
-25 -1 -67 5 -95 5 -27 11 -78 12 -113 2 -44 7 -68 20 -80 16 -16 18 -16 32 2
8 11 14 42 14 72 0 28 7 71 16 95 12 36 13 50 3 81 -10 31 -9 41 5 62 22 34
20 59 -5 82 -18 16 -20 26 -15 69 9 63 9 70 0 128 -7 50 -15 54 -74 38z m54
-60 c4 -27 2 -70 -4 -95 -11 -51 -6 -74 24 -98 21 -17 21 -17 3 -48 -14 -24
-17 -42 -12 -83 4 -36 1 -65 -9 -96 -9 -24 -17 -64 -18 -90 -1 -39 -3 -34 -10
29 -5 41 -11 116 -14 165 -4 60 -11 96 -20 107 -14 14 -13 22 3 67 16 46 16
52 2 66 -13 14 -14 23 -5 58 10 37 30 66 47 67 4 0 9 -22 13 -49z"/>
<path d="M1407 1223 c-24 -10 -39 -24 -43 -39 -4 -16 -21 -30 -49 -43 -37 -17
-44 -25 -53 -62 -24 -98 -36 -135 -54 -158 -22 -28 -24 -69 -4 -77 12 -4 13
-11 4 -29 -16 -34 -4 -55 32 -55 25 0 30 -4 30 -24 0 -14 7 -31 15 -40 8 -8
15 -25 15 -38 0 -26 17 -48 36 -48 6 0 21 19 32 43 23 49 46 72 62 62 6 -4 23
2 38 12 15 10 42 18 61 19 37 1 71 32 71 65 0 26 -17 33 -51 19 -24 -10 -33
-10 -53 3 -29 19 -104 20 -131 1 -42 -29 -46 -8 -13 60 20 43 21 46 5 64 -9
10 -17 23 -17 30 0 6 24 31 54 57 30 25 56 56 58 68 3 19 11 23 54 27 59 6 86
24 82 54 -3 18 -12 22 -58 27 -30 3 -62 8 -70 12 -8 3 -32 -1 -53 -10z m68
-23 c3 -5 25 -7 50 -3 31 4 45 2 45 -6 0 -15 -43 -31 -84 -31 -39 0 -71 -21
-63 -42 3 -10 -13 -31 -49 -62 -56 -49 -68 -82 -39 -106 14 -11 13 -17 -5 -47
-24 -41 -26 -91 -5 -99 9 -4 29 -1 46 7 42 17 90 18 114 2 24 -16 67 -17 83
-1 15 15 16 3 2 -23 -7 -13 -21 -19 -45 -19 -18 0 -46 -7 -62 -15 -15 -8 -40
-17 -54 -19 -17 -4 -33 -20 -51 -52 l-26 -47 -7 31 c-3 17 -12 36 -20 42 -8 6
-11 18 -8 26 7 20 -15 44 -42 44 -32 0 -36 9 -20 41 26 49 17 87 -13 57 -19
-19 -14 1 9 34 21 29 29 52 52 150 9 41 15 48 49 61 24 10 42 25 48 41 13 36
80 61 95 36z"/>
<path d="M3000 1225 c-11 -14 -42 -114 -71 -232 -7 -27 -17 -44 -29 -48 -11
-3 -33 -23 -49 -43 -17 -20 -33 -34 -35 -31 -3 2 4 49 15 104 21 111 18 138
-14 133 -15 -2 -29 -22 -52 -75 -28 -64 -32 -70 -43 -52 -7 10 -18 19 -26 19
-8 0 -18 16 -23 36 -10 42 -36 65 -54 47 -6 -6 -11 -43 -11 -86 1 -47 -4 -82
-13 -93 -13 -18 -14 -18 -23 6 -12 30 -42 189 -42 223 0 35 -10 57 -25 57 -19
0 -44 -33 -51 -66 -3 -17 -15 -34 -27 -39 -35 -16 -58 -72 -51 -126 4 -37 0
-62 -21 -114 -25 -62 -26 -71 -15 -109 7 -22 14 -47 16 -53 2 -7 8 -13 13 -13
13 0 52 70 45 81 -3 6 1 20 9 33 8 12 17 33 19 47 2 16 9 24 22 24 15 0 24
-15 41 -65 28 -87 43 -112 63 -108 13 2 18 18 23 73 3 39 6 56 7 39 1 -17 11
-39 23 -50 20 -18 21 -18 36 1 10 14 13 37 11 77 -4 54 -3 57 13 42 9 -8 31
-42 48 -75 33 -60 53 -73 66 -41 6 15 8 15 16 -5 9 -24 67 -53 105 -53 13 0
29 9 36 19 11 18 13 17 29 -20 19 -40 44 -50 67 -27 17 17 15 46 -8 113 -24
70 -26 152 -4 224 12 41 13 58 4 84 -10 26 -9 41 3 76 23 64 -7 109 -43 66z
m19 -65 c-10 -39 -10 -58 -2 -81 9 -24 9 -39 -3 -71 -21 -59 -18 -180 6 -257
22 -69 15 -100 -14 -60 -9 13 -16 30 -16 39 0 8 -5 22 -10 30 -8 12 -14 9 -38
-20 l-29 -34 -43 19 -42 19 6 54 c7 63 26 94 72 123 20 12 36 31 40 47 3 15
11 45 19 67 7 22 19 65 25 95 7 30 17 63 22 73 17 33 21 10 7 -43z m-504 -90
c6 -57 23 -135 38 -180 3 -8 8 -53 12 -99 8 -100 -5 -101 -35 -2 -11 40 -30
77 -45 91 -25 23 -25 23 -40 4 -17 -22 -50 -106 -60 -149 l-7 -30 -14 35 c-14
31 -14 39 2 70 30 64 43 121 34 146 -12 32 12 96 42 109 12 6 26 24 31 40 18
63 17 62 27 45 4 -8 11 -44 15 -80z m286 -133 c-12 -67 -22 -135 -23 -152 -3
-29 -4 -28 -36 28 -18 31 -41 66 -52 77 -11 11 -20 25 -20 31 0 6 -6 9 -12 6
-9 -3 -13 -28 -13 -78 0 -43 -4 -74 -10 -74 -5 0 -9 7 -8 15 2 8 -2 25 -9 37
-6 12 -7 33 -3 50 4 15 10 66 14 113 7 83 10 86 28 25 5 -16 18 -34 29 -39 12
-5 25 -19 30 -30 11 -27 38 -27 42 -1 6 38 57 149 60 132 2 -9 -6 -72 -17
-140z"/>
<path d="M4314 1166 c-53 -54 -74 -83 -79 -110 -4 -19 -13 -40 -21 -47 -17
-14 -18 -71 -1 -87 6 -7 14 -49 17 -95 5 -78 6 -82 29 -85 28 -4 72 -30 84
-50 11 -18 101 -7 139 17 42 26 108 120 108 153 0 16 -11 45 -24 65 -23 33
-24 37 -10 75 20 59 16 113 -16 178 -14 29 -72 60 -113 60 -36 0 -46 -7 -113
-74z m154 40 c53 -27 65 -50 65 -123 0 -38 -3 -82 -7 -99 -6 -25 -3 -40 20
-73 23 -36 25 -45 15 -67 -18 -40 -73 -105 -101 -118 -31 -16 -100 -20 -100
-7 0 13 -68 45 -92 44 -16 -2 -18 7 -18 67 0 44 -6 82 -16 104 -16 33 -16 36
5 69 11 19 21 43 21 53 0 28 133 164 160 164 11 0 33 -6 48 -14z"/>
<path d="M4350 1093 c-12 -16 -19 -35 -16 -47 3 -12 -5 -31 -20 -49 -21 -26
-24 -36 -18 -71 8 -50 11 -56 29 -56 8 0 22 -12 32 -27 23 -37 30 -41 58 -35
37 7 47 24 34 62 -9 23 -9 42 -1 67 10 31 8 37 -19 68 -26 29 -29 38 -23 74 6
37 4 41 -14 41 -11 0 -30 -12 -42 -27z m32 -40 c-4 -31 0 -40 23 -59 26 -21
27 -24 15 -53 -9 -23 -9 -38 -1 -62 6 -18 11 -36 11 -40 0 -20 -29 -7 -68 31
-48 45 -54 81 -22 123 11 14 20 34 20 45 0 25 10 52 19 52 4 0 5 -17 3 -37z"/>
</g>
</svg>
